<svg width="219" height="108" viewBox="0 0 219 108" fill="none" xmlns="http://www.w3.org/2000/svg">
<path d="M154.412 49.2173L142.817 32.9516L187.91 0.581055H218.348V108H194.513V19.2625L154.412 49.2173Z" fill="black"/>
<path d="M0.333008 108V0.581055H84.2386C98.0887 0.581055 103.886 1.0642 108.879 2.67467C122.246 6.70086 126.916 15.7195 126.916 37.2998C126.916 53.7267 124.339 62.7453 117.736 68.382C112.1 73.3744 103.886 75.1459 87.1375 75.1459H24.9732V108H0.333008ZM24.9732 55.1761H80.2124C97.4445 55.1761 101.954 51.7941 101.954 38.5882C101.954 24.094 97.9276 20.5509 81.3398 20.5509H24.9732V55.1761Z" fill="black"/>
</svg>
